<?xml version="1.0" encoding="UTF-8" standalone="no"?>
<svg
   width="180"
   height="180"
   viewBox="0 0 180 180"
   fill="none"
   version="1.1"
   id="svg3"
   sodipodi:docname="linkedin-mcp-server.svg"
   inkscape:version="1.4 (e7c3feb100, 2024-10-09)"
   xmlns:inkscape="http://www.inkscape.org/namespaces/inkscape"
   xmlns:sodipodi="http://sodipodi.sourceforge.net/DTD/sodipodi-0.dtd"
   xmlns="http://www.w3.org/2000/svg"
   xmlns:svg="http://www.w3.org/2000/svg">
  <sodipodi:namedview
     id="namedview3"
     pagecolor="#ffffff"
     bordercolor="#000000"
     borderopacity="0.25"
     inkscape:showpageshadow="2"
     inkscape:pageopacity="0.0"
     inkscape:pagecheckerboard="0"
     inkscape:deskcolor="#d1d1d1"
     inkscape:zoom="0.7856742"
     inkscape:cx="208.10153"
     inkscape:cy="248.83088"
     inkscape:window-width="1920"
     inkscape:window-height="1164"
     inkscape:window-x="1920"
     inkscape:window-y="0"
     inkscape:window-maximized="1"
     inkscape:current-layer="svg3" />
  <g
     clip-path="url(#clip0_19_13)"
     id="g3">
    <path
       d="M18 84.8528L85.8822 16.9706C95.2548 7.59798 110.451 7.59798 119.823 16.9706V16.9706C129.196 26.3431 129.196 41.5391 119.823 50.9117L68.5581 102.177"
       stroke="black"
       stroke-width="12"
       stroke-linecap="round"
       id="path1" />
    <path
       d="M69.2652 101.47L119.823 50.9117C129.196 41.5391 144.392 41.5391 153.765 50.9117L154.118 51.2652C163.491 60.6378 163.491 75.8338 154.118 85.2063L92.7248 146.6C89.6006 149.724 89.6006 154.789 92.7248 157.913L105.331 170.52"
       stroke="black"
       stroke-width="12"
       stroke-linecap="round"
       id="path2" />
    <path
       d="M102.853 33.9411L52.6482 84.1457C43.2756 93.5183 43.2756 108.714 52.6482 118.087V118.087C62.0208 127.459 77.2167 127.459 86.5893 118.087L136.794 67.8822"
       stroke="black"
       stroke-width="12"
       stroke-linecap="round"
       id="path3" />
  </g>
  <defs
     id="defs3">
    <clipPath
       id="clip0_19_13">
      <rect
         width="180"
         height="180"
         fill="white"
         id="rect3" />
    </clipPath>
  </defs>
  <g
     fill="none"
     fill-rule="evenodd"
     id="g2"
     transform="translate(8.5377273,101.6239)">
    <path
       d="m 8,72 h 56 c 4.418278,0 8,-3.581722 8,-8 V 8 C 72,3.581722 68.418278,0 64,0 H 8 C 3.581722,0 0,3.581722 0,8 v 56 c 0,4.418278 3.581722,8 8,8 z"
       fill="#007ebb"
       id="path1-3" />
    <path
       d="M 62,62 H 51.315625 V 43.802115 c 0,-4.989361 -1.895833,-7.777583 -5.844922,-7.777583 -4.296094,0 -6.540625,2.901578 -6.540625,7.777583 V 62 H 28.633333 V 27.333333 h 10.296745 v 4.669595 c 0,0 3.095964,-5.728713 10.452474,-5.728713 C 56.735677,26.274215 62,30.764471 62,40.051212 Z M 16.349349,22.794013 C 12.842057,22.794013 10,19.929657 10,16.397007 10,12.864357 12.842057,10 16.349349,10 c 3.507292,0 6.347656,2.864357 6.347656,6.397007 0,3.53265 -2.840364,6.397006 -6.347656,6.397006 z M 11.032552,62 H 21.769401 V 27.333333 H 11.032552 Z"
       fill="#ffffff"
       id="path2-6" />
  </g>
</svg>
